<svg width="524" height="253" viewBox="0 0 524 253" fill="none" xmlns="http://www.w3.org/2000/svg">
<rect x="9" y="54" width="506" height="145" fill="#222222"/>
<rect x="23.2535" y="54" width="142.535" height="145" rx="2" fill="white"/>
<rect x="358.211" y="54" width="142.535" height="145" rx="2" fill="white"/>
<rect x="190.223" y="54" width="142.535" height="145" rx="2" fill="white"/>
<rect x="9" width="506" height="54" fill="#222222"/>
<rect y="14" width="18" height="25" rx="3" fill="white"/>
<rect x="422" y="14" width="18" height="25" rx="3" fill="white"/>
<rect x="464" y="14" width="18" height="25" rx="3" fill="white"/>
<rect x="506" y="14" width="18" height="25" rx="3" fill="white"/>
<rect x="42" y="14" width="18" height="25" rx="3" fill="white"/>
<rect x="84" y="14" width="18" height="25" rx="3" fill="white"/>
<rect x="127" y="14" width="18" height="25" rx="3" fill="white"/>
<rect x="169" y="14" width="18" height="25" rx="3" fill="white"/>
<rect x="211" y="14" width="17" height="25" rx="3" fill="white"/>
<rect x="253" y="14" width="18" height="25" rx="3" fill="white"/>
<rect x="296" y="14" width="18" height="25" rx="3" fill="white"/>
<rect x="338" y="14" width="18" height="25" rx="3" fill="white"/>
<rect x="380" y="14" width="18" height="25" rx="3" fill="white"/>
<rect x="9" y="199" width="506" height="54" fill="#222222"/>
<rect y="213" width="18" height="25" rx="3" fill="white"/>
<rect x="422" y="213" width="18" height="25" rx="3" fill="white"/>
<rect x="464" y="213" width="18" height="25" rx="3" fill="white"/>
<rect x="506" y="213" width="18" height="25" rx="3" fill="white"/>
<rect x="42" y="213" width="18" height="25" rx="3" fill="white"/>
<rect x="84" y="213" width="18" height="25" rx="3" fill="white"/>
<rect x="127" y="213" width="18" height="25" rx="3" fill="white"/>
<rect x="169" y="213" width="18" height="25" rx="3" fill="white"/>
<rect x="211" y="213" width="17" height="25" rx="3" fill="white"/>
<rect x="253" y="213" width="18" height="25" rx="3" fill="white"/>
<rect x="296" y="213" width="18" height="25" rx="3" fill="white"/>
<rect x="338" y="213" width="18" height="25" rx="3" fill="white"/>
<rect x="380" y="213" width="18" height="25" rx="3" fill="white"/>
<path d="M241.6 121L258.944 76.2H265.984L283.2 121H275.84L265.6 93.992C265.472 93.6933 265.216 92.968 264.832 91.816C264.491 90.664 264.085 89.384 263.616 87.976C263.147 86.568 262.72 85.288 262.336 84.136C261.952 82.9413 261.696 82.1733 261.568 81.832L263.04 81.768C262.784 82.4933 262.464 83.4107 262.08 84.52C261.739 85.6293 261.355 86.8027 260.928 88.04C260.544 89.2773 260.16 90.4507 259.776 91.56C259.392 92.6267 259.072 93.5227 258.816 94.248L248.64 121H241.6ZM249.28 109.864L251.84 103.208H272.192L275.136 109.864H249.28Z" fill="#222222"/>
<path d="M47.272 121V76.2H65.96C68.8187 76.2 71.2293 76.6267 73.192 77.48C75.1547 78.3333 76.6267 79.6133 77.608 81.32C78.632 82.984 79.144 85.032 79.144 87.464C79.144 89.896 78.4613 91.9653 77.096 93.672C75.7733 95.3787 73.9173 96.552 71.528 97.192V95.912C73.5333 96.3387 75.2827 97.1067 76.776 98.216C78.2693 99.2827 79.4213 100.627 80.232 102.248C81.0853 103.869 81.512 105.725 81.512 107.816C81.512 109.949 81.1707 111.848 80.488 113.512C79.848 115.133 78.8667 116.499 77.544 117.608C76.264 118.717 74.7067 119.571 72.872 120.168C71.0373 120.723 68.9467 121 66.6 121H47.272ZM54.184 114.344H66.216C67.9653 114.344 69.4373 114.088 70.632 113.576C71.8693 113.064 72.808 112.317 73.448 111.336C74.1307 110.312 74.472 109.096 74.472 107.688C74.472 106.365 74.1093 105.235 73.384 104.296C72.7013 103.357 71.72 102.653 70.44 102.184C69.16 101.672 67.6453 101.416 65.896 101.416H54.184V114.344ZM54.184 94.76H65.576C66.856 94.76 67.9867 94.504 68.968 93.992C69.992 93.48 70.7813 92.776 71.336 91.88C71.9333 90.984 72.232 89.96 72.232 88.808C72.232 86.888 71.592 85.416 70.312 84.392C69.032 83.368 67.1973 82.856 64.808 82.856H54.184V94.76ZM112.275 121V76.2H119.187V114.344H140.179V121H112.275Z" fill="#222222"/>
<path d="M397.448 121.64C394.333 121.64 391.475 121.085 388.872 119.976C386.269 118.867 384.008 117.288 382.088 115.24C380.168 113.149 378.675 110.696 377.608 107.88C376.584 105.064 376.072 101.971 376.072 98.6C376.072 95.4 376.627 92.4347 377.736 89.704C378.888 86.9307 380.467 84.4987 382.472 82.408C384.477 80.3173 386.803 78.696 389.448 77.544C392.093 76.392 394.952 75.816 398.024 75.816C400.2 75.816 402.312 76.1573 404.36 76.84C406.451 77.48 408.328 78.3973 409.992 79.592C411.699 80.744 413.085 82.0667 414.152 83.56L409.544 88.36C408.307 87.1227 407.048 86.0987 405.768 85.288C404.531 84.4347 403.251 83.7947 401.928 83.368C400.648 82.9413 399.347 82.728 398.024 82.728C395.933 82.728 393.971 83.1333 392.136 83.944C390.344 84.712 388.765 85.8 387.4 87.208C386.077 88.616 385.032 90.3013 384.264 92.264C383.496 94.184 383.112 96.296 383.112 98.6C383.112 101.032 383.475 103.251 384.2 105.256C384.968 107.219 386.035 108.904 387.4 110.312C388.765 111.72 390.387 112.808 392.264 113.576C394.184 114.301 396.296 114.664 398.6 114.664C400.008 114.664 401.395 114.472 402.76 114.088C404.125 113.704 405.405 113.149 406.6 112.424C407.795 111.699 408.883 110.845 409.864 109.864L413.32 115.496C412.339 116.648 410.995 117.693 409.288 118.632C407.624 119.571 405.747 120.317 403.656 120.872C401.608 121.384 399.539 121.64 397.448 121.64ZM449.91 107.432L449.526 99.688L473.014 76.2H482.102L449.91 107.432ZM444.15 121V76.2H451.062V121H444.15ZM473.846 121L456.694 98.088L461.814 93.672L482.486 121H473.846Z" fill="#222222"/>
<rect x="32" y="121" width="126" height="63" fill="#222222"/>
<rect x="215" y="121" width="92" height="63" fill="#222222"/>
<path d="M250.608 177V170.6H257.84V138.6H250.608V132.2H271.984V138.6H264.752V170.6H271.984V177H250.608Z" fill="white"/>
<rect x="378" y="121" width="104" height="63" fill="#222222"/>
<path d="M51.808 177L37.536 132.2H44.896L53.536 160.232C53.792 160.915 54.0267 161.725 54.24 162.664C54.4533 163.56 54.6453 164.477 54.816 165.416C54.9867 166.355 55.136 167.229 55.264 168.04C55.4347 168.851 55.584 169.512 55.712 170.024L53.856 169.96C54.496 167.699 54.9867 165.949 55.328 164.712C55.712 163.475 56.0107 162.536 56.224 161.896C56.4373 161.213 56.6293 160.637 56.8 160.168L64.864 139.944H71.072L78.88 160.168C79.3067 161.192 79.6693 162.216 79.968 163.24C80.3093 164.221 80.608 165.224 80.864 166.248C81.12 167.229 81.3973 168.275 81.696 169.384L80.032 169.832C80.2453 168.68 80.3947 167.784 80.48 167.144C80.608 166.461 80.7147 165.907 80.8 165.48C80.8853 165.053 80.9707 164.648 81.056 164.264C81.1413 163.837 81.2693 163.304 81.44 162.664C81.6533 162.024 81.9307 161.149 82.272 160.04L90.784 132.2H98.208L83.936 177H79.136L67.296 148.968L67.872 149.224L56.48 177H51.808ZM141.67 177V132.2H148.582V177H141.67ZM112.422 177V132.2H119.334V177H112.422ZM115.43 157.992V151.336H144.742V157.992H115.43Z" fill="white"/>
<path d="M396.784 177V138.856H384.24V132.2H416.624V138.856H403.696V177H396.784ZM446.587 177V132.2H474.811V138.856H453.499V170.344H474.811V177H446.587ZM449.723 157.352V150.696H471.291V157.352H449.723Z" fill="white"/>
</svg>
